<svg width="142" height="30" viewBox="0 0 142 30" fill="none" xmlns="http://www.w3.org/2000/svg">
<g clip-path="url(#clip0_253_9911)">
<path d="M50.0792 5.2954C49.5195 5.2954 49.0388 5.12356 48.6417 4.77987C48.2446 4.43618 48.0449 3.94851 48.0449 3.32151C48.0449 2.75256 48.2493 2.28115 48.6557 1.91424C49.0621 1.54733 49.5381 1.36155 50.0792 1.36155C50.6203 1.36155 51.0615 1.52875 51.4656 1.86315C51.8673 2.19755 52.0693 2.6829 52.0693 3.32151C52.0693 3.96012 51.872 4.42457 51.4795 4.7729C51.087 5.12124 50.6203 5.2954 50.0792 5.2954ZM52.0693 9.45219V21.0819C52.0693 21.8877 51.8766 22.4962 51.4934 22.9095C51.1103 23.3229 50.6226 23.5295 50.0351 23.5295C49.4475 23.5295 48.9668 23.3182 48.5976 22.8956C48.2284 22.4729 48.0449 21.8692 48.0449 21.0819V9.56831C48.0449 8.77178 48.2284 8.17265 48.5976 7.7709C48.9668 7.36915 49.4452 7.16712 50.0351 7.16712C50.6249 7.16712 51.1103 7.36915 51.4934 7.7709C51.8766 8.17497 52.0693 8.73463 52.0693 9.45219Z" fill="#365F7B"/>
<path d="M59.5793 9.39414V9.87948C60.2876 8.94595 61.0609 8.26089 61.9015 7.82431C62.7422 7.38773 63.7082 7.16944 64.7973 7.16944C65.8865 7.16944 66.8061 7.39935 67.6421 7.86147C68.4781 8.32359 69.1004 8.97614 69.5138 9.82143C69.7785 10.3137 69.9504 10.8432 70.0293 11.4145C70.1083 11.9834 70.1478 12.7126 70.1478 13.595V21.0842C70.1478 21.89 69.9643 22.4985 69.5951 22.9118C69.2258 23.3252 68.7474 23.5319 68.1576 23.5319C67.5678 23.5319 67.0708 23.3205 66.6992 22.8979C66.3254 22.4753 66.1396 21.8715 66.1396 21.0842V14.3776C66.1396 13.0516 65.9561 12.0368 65.5869 11.3332C65.2177 10.6319 64.4838 10.2789 63.3831 10.2789C62.6655 10.2789 62.013 10.4926 61.4231 10.9198C60.8333 11.3471 60.4014 11.9347 60.125 12.6824C59.9276 13.2815 59.8301 14.4032 59.8301 16.0427V21.0842C59.8301 21.8993 59.6397 22.5124 59.2635 22.9188C58.8849 23.3275 58.395 23.5295 57.7958 23.5295C57.1967 23.5295 56.7392 23.3182 56.3653 22.8956C55.9914 22.4729 55.8057 21.8691 55.8057 21.0819V9.45219C55.8057 8.68586 55.9729 8.11227 56.3073 7.73375C56.6417 7.35522 57.0991 7.16712 57.6774 7.16712C58.0304 7.16712 58.3508 7.25072 58.6365 7.41792C58.9221 7.58512 59.1497 7.83592 59.3215 8.17032C59.4934 8.50473 59.5793 8.91344 59.5793 9.39414Z" fill="#365F7B"/>
<path d="M88.2868 18.546C88.2868 19.0476 88.1358 19.5841 87.8363 20.153C87.5367 20.722 87.0792 21.2654 86.4661 21.7809C85.8531 22.2964 85.0775 22.7121 84.1439 23.0256C83.2104 23.3391 82.1584 23.497 80.9903 23.497C78.5032 23.497 76.5642 22.7725 75.1685 21.3234C73.7728 19.8744 73.0762 17.9306 73.0762 15.4946C73.0762 13.8435 73.3966 12.3852 74.0353 11.1172C74.6739 9.84929 75.5981 8.86931 76.8057 8.17729C78.0132 7.48526 79.46 7.13693 81.139 7.13693C82.1816 7.13693 83.1361 7.2902 84.0069 7.59441C84.8754 7.89862 85.6139 8.2934 86.2177 8.7741C86.8214 9.2548 87.2836 9.76801 87.604 10.3137C87.9222 10.8595 88.0824 11.368 88.0824 11.8394C88.0824 12.3109 87.9036 12.7289 87.5437 13.0633C87.1837 13.3977 86.7495 13.5649 86.2386 13.5649C85.9042 13.5649 85.6278 13.4789 85.4049 13.3071C85.1843 13.1352 84.9358 12.8566 84.6595 12.4734C84.1671 11.7257 83.6539 11.166 83.1198 10.7921C82.5834 10.4182 81.903 10.2325 81.0786 10.2325C79.8896 10.2325 78.9305 10.6969 78.2037 11.6258C77.4768 12.5547 77.1122 13.8249 77.1122 15.4366C77.1122 16.1936 77.2051 16.888 77.3932 17.5219C77.579 18.1559 77.8507 18.697 78.2037 19.1428C78.5566 19.591 78.9839 19.9301 79.4855 20.16C79.9871 20.3899 80.5375 20.506 81.1366 20.506C81.9424 20.506 82.6321 20.3202 83.2081 19.9463C83.7817 19.5725 84.2925 19.0035 84.7338 18.2372C84.9799 17.7843 85.2447 17.4314 85.5303 17.1759C85.8159 16.9205 86.1643 16.7928 86.5776 16.7928C87.0699 16.7928 87.4763 16.9785 87.8014 17.3524C88.1265 17.7263 88.2868 18.1234 88.2868 18.546Z" fill="#05AEB5"/>
<path d="M94.6771 3.63036V9.60081C95.188 9.01097 95.6873 8.5442 96.1727 8.20051C96.658 7.85682 97.1968 7.59905 97.7866 7.42721C98.3764 7.25536 99.0104 7.16944 99.6885 7.16944C100.71 7.16944 101.616 7.38541 102.408 7.81734C103.2 8.24928 103.82 8.8786 104.273 9.70299C104.558 10.1837 104.749 10.7225 104.849 11.3169C104.946 11.9114 104.995 12.5965 104.995 13.3721V21.0819C104.995 21.8877 104.811 22.4962 104.442 22.9095C104.073 23.3229 103.585 23.5295 102.974 23.5295C101.648 23.5295 100.984 22.7144 100.984 21.0819V14.2871C100.984 13.0006 100.792 12.009 100.408 11.3169C100.025 10.6249 99.2984 10.2766 98.2278 10.2766C97.5103 10.2766 96.8647 10.4809 96.2888 10.8873C95.7129 11.296 95.2832 11.8534 94.9999 12.5593C94.784 13.1585 94.6748 14.2244 94.6748 15.757V21.0796C94.6748 21.8761 94.496 22.4822 94.1361 22.9002C93.7761 23.3182 93.2792 23.5272 92.6405 23.5272C91.3145 23.5272 90.6504 22.7121 90.6504 21.0796V3.63036C90.6504 2.81526 90.8246 2.20219 91.1729 1.7958C91.5212 1.38709 92.0112 1.18506 92.6405 1.18506C93.2699 1.18506 93.7784 1.39174 94.1361 1.80509C94.4937 2.21845 94.6748 2.82687 94.6748 3.63269L94.6771 3.63036Z" fill="#05AEB5"/>
<path d="M119.906 16.3353H112.034C112.043 17.2502 112.226 18.0561 112.586 18.7527C112.944 19.4517 113.422 19.9765 114.017 20.3295C114.611 20.6825 115.266 20.8613 115.984 20.8613C116.464 20.8613 116.906 20.8056 117.303 20.6918C117.7 20.578 118.088 20.4015 118.459 20.16C118.833 19.9185 119.177 19.6607 119.49 19.3867C119.804 19.1127 120.212 18.7388 120.714 18.2674C120.921 18.0909 121.216 18.0026 121.599 18.0026C122.012 18.0026 122.347 18.1164 122.602 18.3417C122.857 18.5669 122.985 18.8874 122.985 19.3008C122.985 19.6654 122.844 20.0903 122.558 20.5757C122.272 21.061 121.843 21.5278 121.269 21.976C120.693 22.4242 119.971 22.7934 119.102 23.0883C118.234 23.3832 117.233 23.5296 116.102 23.5296C113.517 23.5296 111.509 22.7934 110.074 21.3188C108.638 19.8442 107.921 17.8447 107.921 15.3205C107.921 14.1315 108.097 13.0284 108.453 12.0113C108.808 10.9942 109.324 10.1233 110.002 9.39414C110.68 8.66728 111.516 8.10994 112.507 7.72213C113.499 7.33432 114.6 7.13925 115.81 7.13925C117.382 7.13925 118.731 7.47133 119.855 8.13317C120.979 8.79732 121.822 9.65423 122.384 10.7062C122.943 11.7582 123.224 12.8287 123.224 13.9202C123.224 14.9327 122.934 15.5875 122.354 15.8871C121.773 16.1867 120.958 16.3376 119.906 16.3376V16.3353ZM112.034 14.0502H119.33C119.232 12.6754 118.861 11.6444 118.218 10.9616C117.574 10.2789 116.727 9.93754 115.675 9.93754C114.623 9.93754 113.85 10.2836 113.206 10.9779C112.563 11.6722 112.173 12.6963 112.034 14.0502Z" fill="#05AEB5"/>
<path d="M137.337 26.8155V21.14C136.561 21.9156 135.753 22.5078 134.912 22.9165C134.072 23.3252 133.14 23.5272 132.119 23.5272C130.869 23.5272 129.734 23.1975 128.707 22.5403C127.681 21.8831 126.875 20.9356 126.29 19.7025C125.705 18.4694 125.412 17.018 125.412 15.346C125.412 13.674 125.707 12.1692 126.297 10.9454C126.887 9.72158 127.704 8.79036 128.751 8.15175C129.799 7.51314 130.96 7.19267 132.237 7.19267C133.317 7.19267 134.285 7.4156 135.14 7.86379C135.995 8.31198 136.726 8.9924 137.337 9.90503V9.41969C137.337 8.68354 137.513 8.12156 137.869 7.73839C138.224 7.35522 138.679 7.16248 139.239 7.16248C139.798 7.16248 140.256 7.3529 140.609 7.7291C140.962 8.10763 141.141 8.66961 141.141 9.41736V26.8109C141.141 28.599 140.507 29.493 139.239 29.493C138.451 29.493 137.938 29.2515 137.699 28.7708C137.458 28.2901 137.337 27.6353 137.337 26.8109V26.8155ZM129.45 15.3181C129.45 16.4003 129.625 17.3292 129.973 18.1118C130.321 18.8921 130.781 19.4726 131.35 19.8511C131.919 20.2297 132.534 20.4178 133.192 20.4178C133.909 20.4178 134.566 20.2297 135.168 19.8511C135.767 19.4726 136.248 18.8944 136.612 18.1188C136.977 17.3431 137.158 16.3841 137.158 15.2438C137.158 14.438 137.051 13.7112 136.842 13.0633C136.631 12.4154 136.343 11.8766 135.981 11.4493C135.616 11.022 135.2 10.7016 134.727 10.4902C134.255 10.2789 133.754 10.1744 133.224 10.1744C132.142 10.1744 131.243 10.6226 130.526 11.5167C129.808 12.4107 129.45 13.6787 129.45 15.3205V15.3181Z" fill="#05AEB5"/>
<path d="M18.1854 27.7212C17.6211 27.9093 17.0405 28.0625 16.446 28.1763C15.5798 28.3458 14.6858 28.4341 13.7731 28.4341C11.9572 28.4341 10.2248 28.0881 8.63405 27.4564C4.34257 25.7589 1.09377 21.9946 0.113789 17.3942C0.0975336 17.3153 0.0789558 17.2363 0.0673446 17.1574C0.0232223 16.9066 0 16.6488 0 16.3864C0 15.1602 0.499279 14.0479 1.30277 13.2444C2.08072 12.4664 3.14894 11.9741 4.33096 11.9439H4.60498C4.9417 11.9509 5.26681 11.9974 5.58032 12.0786C6.98526 12.4316 8.12316 13.4534 8.63869 14.784C8.65495 15.5713 8.73855 16.3446 8.8802 17.0947C9.82999 22.0921 13.4434 26.1421 18.1854 27.7212Z" fill="#05AEB5"/>
<g opacity="0.56">
<path d="M18.1854 27.7212C18.1691 27.7258 18.1575 27.7305 18.1413 27.7351C18.0228 27.7374 17.9044 27.7397 17.7813 27.7397C16.237 27.7397 14.7531 27.4913 13.3668 27.0291C8.62477 25.45 5.01138 21.3977 4.06159 16.4003C3.91993 15.6502 3.83633 14.8792 3.81775 14.0943V13.8784C3.81543 13.8435 3.81543 13.811 3.81543 13.7762C3.81543 13.1631 3.85259 12.564 3.93154 11.9741C4.06159 11.9556 4.19395 11.9486 4.32864 11.9439H4.60499C4.94171 11.9509 5.26682 11.9974 5.58032 12.0763C6.98295 12.4316 8.11852 13.4488 8.6387 14.7817C8.65495 15.5713 8.73855 16.3446 8.88021 17.0946C9.83 22.0921 13.4434 26.1421 18.1854 27.7212Z" fill="url(#paint0_linear_253_9911)"/>
</g>
<path d="M6.52294 7.46436C6.0492 7.88933 5.48722 8.14942 4.90666 8.25857C4.68605 8.29804 4.46544 8.31894 4.24251 8.31662C3.33219 8.30501 2.43349 7.92649 1.77862 7.19499L1.7554 7.16944C0.519974 5.78307 0.64073 3.65823 2.02478 2.42281C2.66571 1.84921 3.46456 1.57055 4.26108 1.57055C5.18533 1.57055 6.10493 1.94907 6.76909 2.69218L6.79231 2.72005C6.87359 2.8083 6.94558 2.90351 7.01293 2.99872C7.15226 3.19146 7.26837 3.39814 7.36126 3.60946C7.93021 4.90527 7.63296 6.47277 6.52061 7.46436H6.52294Z" fill="#05AEB5"/>
<path d="M32.353 24.4608C30.5765 26.1955 28.3402 27.4588 25.8438 28.0509C24.8035 28.2994 23.7167 28.4318 22.5997 28.4318C21.0577 28.4318 19.5738 28.181 18.1851 27.7188C13.4431 26.1397 9.82974 22.0898 8.87995 17.0923C8.73829 16.3422 8.65469 15.5713 8.63843 14.784C8.63611 14.712 8.63379 14.6424 8.63379 14.5704C8.63379 14.5355 8.63379 14.5007 8.63379 14.4659C8.63379 13.6043 8.71042 12.7614 8.86137 11.9416C9.02625 11.029 9.28169 10.1489 9.61609 9.30821C9.65789 9.20139 9.70201 9.09225 9.74846 8.98542C9.78794 8.89253 9.82741 8.79964 9.87154 8.70908C9.89244 8.66263 9.91334 8.61387 9.93656 8.56742C9.97836 8.47685 10.0202 8.38861 10.0643 8.30036C10.1084 8.2098 10.1548 8.11923 10.2013 8.03099C10.2384 7.959 10.2756 7.88933 10.3128 7.81734C10.3569 7.73374 10.4033 7.65014 10.4498 7.56886C10.5101 7.46436 10.5682 7.36219 10.6309 7.26001C10.6309 7.25536 10.6356 7.25072 10.6379 7.2484C10.7006 7.14157 10.7656 7.03707 10.8329 6.93257C10.8933 6.83736 10.9537 6.74447 11.0164 6.65391C11.035 6.62372 11.0559 6.59353 11.0791 6.56334C11.1186 6.50296 11.1604 6.44258 11.2045 6.3822C11.237 6.33344 11.2718 6.28699 11.3067 6.24055C11.3671 6.15927 11.4274 6.07799 11.4878 5.99671C11.5598 5.9015 11.6318 5.80861 11.7084 5.71805C11.7642 5.64838 11.8199 5.57871 11.8803 5.50905C11.9174 5.4626 11.9569 5.41616 11.9941 5.37204C12.0521 5.30469 12.1125 5.23735 12.1705 5.17C12.2193 5.11427 12.2681 5.06086 12.3192 5.00744C12.3377 4.98422 12.361 4.961 12.3819 4.9401C12.426 4.89133 12.4724 4.84257 12.5189 4.7938C12.6489 4.65679 12.7836 4.52442 12.9183 4.39438C13.0135 4.30149 13.111 4.21092 13.2086 4.12268C13.3061 4.03211 13.406 3.94619 13.5081 3.85794C13.5732 3.80221 13.6382 3.74647 13.7055 3.69074C13.9842 3.46084 14.2722 3.24255 14.5671 3.03355C14.6321 2.98711 14.6995 2.94066 14.7645 2.89654C14.9201 2.78972 15.0803 2.68754 15.2429 2.58536C15.3125 2.54124 15.3845 2.49944 15.4565 2.45532C15.6957 2.31366 15.9418 2.17665 16.1903 2.04893C16.2623 2.01177 16.3343 1.97461 16.4063 1.93978C16.5781 1.85618 16.75 1.7749 16.9265 1.69595C17.0031 1.66111 17.0821 1.6286 17.1587 1.59609C17.233 1.56358 17.3096 1.53339 17.3839 1.5032C17.5628 1.43121 17.7392 1.36387 17.9204 1.30117C18.0063 1.26866 18.0922 1.24079 18.1781 1.2106C19.5645 0.748478 21.0484 0.497677 22.5927 0.497677C26.3965 0.497677 29.845 2.01874 32.3646 4.48494C35.1443 7.2066 33.1681 11.9416 29.2784 11.9416C28.7234 11.9416 28.1753 11.8394 27.6668 11.6374C27.5855 11.6049 27.5042 11.5701 27.4229 11.5306C27.0073 11.3402 26.6218 11.0801 26.2874 10.755C26.2804 10.748 26.2734 10.741 26.2665 10.7341C26.227 10.6946 26.1852 10.6574 26.1434 10.6203C26.0575 10.5413 25.9646 10.467 25.874 10.395C25.6929 10.2557 25.5048 10.1256 25.3074 10.0095C25.2609 9.98398 25.2145 9.95611 25.1681 9.93057C25.1332 9.91199 25.0984 9.89341 25.0636 9.87484C25.0357 9.8609 25.0078 9.84697 24.9776 9.83071C24.901 9.79124 24.8244 9.7564 24.7454 9.72157C24.7083 9.70531 24.6734 9.68906 24.6363 9.67512C24.5968 9.65887 24.5596 9.64261 24.5202 9.62868C24.4807 9.61475 24.4412 9.60081 24.4017 9.58456C24.3739 9.57295 24.3437 9.56366 24.3135 9.55437C24.1834 9.51025 24.0511 9.47077 23.9164 9.43826C23.8839 9.42897 23.8514 9.422 23.8212 9.41503C23.6656 9.37788 23.51 9.35001 23.3498 9.32911C23.294 9.31982 23.2336 9.31286 23.1756 9.30821C23.1059 9.30125 23.0339 9.29428 22.9619 9.29196C22.9132 9.28731 22.8621 9.28499 22.8133 9.28499C22.7529 9.28267 22.6926 9.28035 22.6322 9.28035H22.6229C22.5741 9.28035 22.523 9.28034 22.4743 9.28267C22.4348 9.28267 22.3976 9.28499 22.3582 9.28731C22.3465 9.28731 22.3326 9.28731 22.321 9.28731C22.2931 9.28731 22.2653 9.29196 22.2374 9.29428C22.1979 9.2966 22.1584 9.30125 22.119 9.30357C21.9634 9.3175 21.8101 9.34072 21.6592 9.36859C21.5523 9.38717 21.4455 9.41271 21.341 9.43826C21.3015 9.44755 21.2621 9.45916 21.2226 9.47077C21.1831 9.48238 21.146 9.49399 21.1042 9.5056C21.0438 9.52418 20.9857 9.54276 20.9253 9.56134C20.8255 9.59617 20.7303 9.63332 20.6327 9.6728C20.6211 9.67745 20.6118 9.68209 20.6002 9.68441C19.0072 10.3579 17.8066 11.7953 17.4606 13.5231C17.449 13.5834 17.4374 13.6438 17.4281 13.7042C17.4141 13.7901 17.4025 13.876 17.3932 13.9643C17.3886 13.9991 17.3863 14.0316 17.3839 14.0665C17.3816 14.0897 17.3793 14.1129 17.377 14.1361C17.3723 14.1802 17.37 14.2267 17.3677 14.2708C17.3677 14.294 17.3654 14.3149 17.363 14.3382V14.3614C17.3607 14.4218 17.3584 14.4821 17.3584 14.5402C17.3584 15.2671 17.507 15.9614 17.7718 16.593C17.8066 16.672 17.8414 16.7486 17.8763 16.8253C17.9691 17.018 18.0736 17.2038 18.1874 17.3826C18.2339 17.4546 18.2803 17.5219 18.3291 17.5916C18.3523 17.6264 18.3779 17.6613 18.4034 17.6938C18.4545 17.7611 18.5056 17.8261 18.559 17.8912C18.6124 17.9585 18.6681 18.0212 18.7239 18.0816C18.7796 18.1443 18.8377 18.2047 18.898 18.265C18.9584 18.3254 19.0188 18.3835 19.0815 18.4392C19.2069 18.5507 19.3369 18.6598 19.4716 18.762C19.5738 18.8363 19.6783 18.9106 19.7828 18.978C19.8548 19.0221 19.9245 19.0685 19.9988 19.1103C20.0708 19.1521 20.1474 19.1916 20.2217 19.2334C20.2589 19.252 20.296 19.2706 20.3355 19.2892C20.4121 19.3263 20.4911 19.3611 20.5677 19.3937C20.8046 19.4935 21.0484 19.5771 21.3015 19.6421C21.3851 19.663 21.4711 19.6839 21.5547 19.7025C21.8984 19.7722 22.2513 19.8093 22.6159 19.8093C22.6763 19.8093 22.7367 19.8093 22.7971 19.8047C22.8458 19.8047 22.8946 19.8 22.9457 19.7977C23.02 19.7931 23.0943 19.7884 23.1663 19.7791C23.2197 19.7745 23.2708 19.7675 23.3242 19.7606C23.3312 19.7606 23.3358 19.7606 23.3428 19.7582C23.3776 19.7536 23.4148 19.749 23.4496 19.742C23.4891 19.735 23.5262 19.7281 23.5657 19.7211C23.6006 19.7141 23.6354 19.7095 23.6702 19.7025C23.7329 19.6909 23.7933 19.677 23.8537 19.6607C23.9048 19.6491 23.9535 19.6375 24.0023 19.6236C24.0093 19.6212 24.0162 19.6189 24.0232 19.6166C24.072 19.6027 24.1207 19.5887 24.1695 19.5748C24.2926 19.5376 24.4133 19.4958 24.5294 19.4494C24.5782 19.4308 24.627 19.4099 24.6734 19.389C24.7199 19.3704 24.7663 19.3495 24.8128 19.3263C24.822 19.3217 24.8337 19.317 24.8429 19.3124C24.8847 19.2938 24.9265 19.2729 24.9683 19.252C25.0752 19.1986 25.1797 19.1429 25.2818 19.0825C25.319 19.0616 25.3515 19.0407 25.3863 19.0198C25.3933 19.0151 25.4026 19.0105 25.4096 19.0058C25.463 18.971 25.5164 18.9362 25.5675 18.9013C25.6139 18.8688 25.6604 18.8363 25.7068 18.8038C25.7533 18.7713 25.7974 18.7365 25.8415 18.7016C25.8879 18.6668 25.9344 18.6296 25.9785 18.5925C26.0203 18.5577 26.0598 18.5228 26.1016 18.488C26.1411 18.4531 26.1805 18.4183 26.22 18.3812C26.5591 18.0607 26.9446 17.7983 27.3602 17.5986C27.9222 17.3292 28.5399 17.1829 29.1762 17.1829H29.3527C33.1519 17.1829 35.0515 21.8041 32.3298 24.4584L32.353 24.4608Z" fill="url(#paint1_radial_253_9911)"/>
<path opacity="0.56" d="M32.3532 24.4608C30.5767 26.1955 28.3404 27.4588 25.844 28.0509C25.1822 28.167 24.5297 28.2297 23.9003 28.2297C18.6242 28.2297 14.3467 23.9522 14.3467 18.6761C14.3467 14.236 16.7223 11.1428 20.6121 9.68674C19.019 10.3602 17.8184 11.7976 17.4724 13.5254C17.4608 13.5858 17.4492 13.6461 17.4399 13.7065C17.426 13.7924 17.4143 13.8784 17.4051 13.9666C17.4004 14.0014 17.3981 14.034 17.3958 14.0688C17.3934 14.092 17.3911 14.1152 17.3888 14.1385C17.3842 14.1826 17.3818 14.229 17.3795 14.2731C17.3795 14.2964 17.3772 14.3173 17.3749 14.3405V14.3637C17.3725 14.4241 17.3702 14.4845 17.3702 14.5425C17.3702 15.2694 17.5188 15.9637 17.7836 16.5954C17.8184 16.6743 17.8532 16.751 17.8881 16.8276C17.981 17.0203 18.0855 17.2061 18.1993 17.3849C18.2457 17.4569 18.2921 17.5243 18.3409 17.5939C18.3641 17.6288 18.3897 17.6636 18.4152 17.6961C18.4663 17.7635 18.5174 17.8285 18.5708 17.8935C18.6242 17.9608 18.68 18.0235 18.7357 18.0839C18.7914 18.1466 18.8495 18.207 18.9099 18.2674C18.9702 18.3278 19.0306 18.3858 19.0933 18.4415C19.2187 18.553 19.3488 18.6622 19.4834 18.7643C19.5856 18.8386 19.6901 18.913 19.7946 18.9803C19.8666 19.0244 19.9363 19.0709 20.0106 19.1127C20.0826 19.1545 20.1592 19.1939 20.2335 19.2357C20.2707 19.2543 20.3078 19.2729 20.3473 19.2915C20.424 19.3286 20.5029 19.3635 20.5795 19.396C20.8164 19.4958 21.0602 19.5794 21.3134 19.6445C21.397 19.6654 21.4829 19.6863 21.5665 19.7048C21.9102 19.7745 22.2632 19.8117 22.6277 19.8117C22.6881 19.8117 22.7485 19.8117 22.8089 19.807C22.8576 19.807 22.9064 19.8024 22.9575 19.8001C23.0318 19.7954 23.1061 19.7908 23.1781 19.7815C23.2315 19.7768 23.2826 19.7699 23.336 19.7629C23.343 19.7629 23.3476 19.7629 23.3546 19.7606C23.3894 19.7559 23.4266 19.7513 23.4614 19.7443C23.5009 19.7374 23.5381 19.7304 23.5775 19.7234C23.6124 19.7164 23.6472 19.7118 23.682 19.7048C23.7447 19.6932 23.8051 19.6793 23.8655 19.663C23.9166 19.6514 23.9654 19.6398 24.0141 19.6259C24.0211 19.6236 24.0281 19.6212 24.035 19.6189C24.0838 19.605 24.1326 19.5911 24.1813 19.5771C24.3044 19.54 24.4252 19.4982 24.5413 19.4517C24.59 19.4331 24.6388 19.4122 24.6852 19.3913C24.7317 19.3728 24.7781 19.3519 24.8246 19.3286C24.8339 19.324 24.8455 19.3193 24.8548 19.3147C24.8966 19.2961 24.9384 19.2752 24.9802 19.2543C25.087 19.2009 25.1915 19.1452 25.2937 19.0848C25.3308 19.0639 25.3633 19.043 25.3982 19.0221C25.4051 19.0175 25.4144 19.0128 25.4214 19.0082C25.4748 18.9733 25.5282 18.9385 25.5793 18.9037C25.6257 18.8712 25.6722 18.8386 25.7186 18.8061C25.7651 18.7736 25.8092 18.7388 25.8533 18.704C25.8998 18.6691 25.9462 18.632 25.9903 18.5948C26.0321 18.56 26.0716 18.5251 26.1134 18.4903C26.1529 18.4555 26.1924 18.4206 26.2318 18.3835C26.5709 18.063 26.9564 17.8006 27.3721 17.6009C27.934 17.3315 28.5518 17.1852 29.188 17.1852H29.3645C33.1637 17.1852 35.0633 21.8065 32.3416 24.4608H32.3532Z" fill="url(#paint2_linear_253_9911)"/>
</g>
<defs>
<linearGradient id="paint0_linear_253_9911" x1="4.76754" y1="12.5663" x2="13.9798" y2="27.5772" gradientUnits="userSpaceOnUse">
<stop stop-color="#05AEB5"/>
<stop offset="1" stop-color="#365F7B"/>
</linearGradient>
<radialGradient id="paint1_radial_253_9911" cx="0" cy="0" r="1" gradientUnits="userSpaceOnUse" gradientTransform="translate(14.3349 27.1818) scale(27.0789 27.079)">
<stop stop-color="#05AEB5"/>
<stop offset="0.47" stop-color="#06ACB3"/>
<stop offset="0.64" stop-color="#0AA5AE"/>
<stop offset="0.76" stop-color="#1199A5"/>
<stop offset="0.86" stop-color="#1C8899"/>
<stop offset="0.94" stop-color="#297289"/>
<stop offset="1" stop-color="#365F7B"/>
</radialGradient>
<linearGradient id="paint2_linear_253_9911" x1="30.7509" y1="23.2857" x2="14.4976" y2="15.9057" gradientUnits="userSpaceOnUse">
<stop stop-color="#05AEB5"/>
<stop offset="1" stop-color="#365F7B"/>
</linearGradient>
<clipPath id="clip0_253_9911">
<rect width="141.14" height="29" fill="white" transform="translate(0 0.5)"/>
</clipPath>
</defs>
</svg>
